 <svg version="1.0" xmlns="http://www.w3.org/2000/svg"  width="27.000000pt" height="28.000000pt" viewBox="0 0 27.000000 28.000000"  preserveAspectRatio="xMidYMid meet">  <g transform="translate(0.000000,28.000000) scale(0.100000,-0.100000)" fill="#000000" stroke="none"> <path d="M13 273 c-10 -3 -13 -40 -13 -133 0 -107 3 -129 16 -134 20 -8 168 -8 188 0 17 7 22 54 6 54 -5 0 -10 -9 -10 -20 0 -19 -7 -20 -95 -20 l-95 0 0 120 0 120 95 0 c88 0 95 -1 95 -20 0 -11 5 -20 10 -20 16 0 11 47 -6 54 -19 7 -173 7 -191 -1z"/> <path d="M200 205 c0 -5 10 -19 22 -32 l21 -23 -81 0 c-48 0 -82 -4 -82 -10 0 -6 34 -10 82 -10 l81 0 -23 -25 c-13 -14 -21 -27 -19 -30 3 -3 21 11 39 30 l34 35 -37 38 c-20 20 -37 33 -37 27z"/> </g> </svg> 