 <svg version="1.0" xmlns="http://www.w3.org/2000/svg"  width="30.000000pt" height="31.000000pt" viewBox="0 0 30.000000 31.000000"  preserveAspectRatio="xMidYMid meet">  <g transform="translate(0.000000,31.000000) scale(0.100000,-0.100000)" fill="#000000" stroke="none"> <path d="M45 293 c-16 -3 -33 -10 -37 -16 -13 -20 -9 -182 5 -200 10 -15 27 -17 112 -15 l100 3 0 113 0 112 28 0 27 0 0 -111 c0 -71 4 -108 10 -104 11 7 14 183 4 209 -5 13 -24 16 -113 15 -58 -1 -119 -4 -136 -6z m173 -115 l3 -98 -49 0 -48 0 0 50 c0 47 1 49 30 53 17 2 2 4 -34 4 -36 0 -53 -2 -37 -4 25 -4 27 -8 27 -54 l0 -49 -45 0 -45 0 0 100 0 101 98 -3 97 -3 3 -97z"/> </g> </svg> 