 <svg version="1.0" xmlns="http://www.w3.org/2000/svg"  
 width="30.000000pt" height="31.000000pt" viewBox="0 0 30.000000 31.000000" 
  preserveAspectRatio="xMidYMid meet">  <g transform="translate(0.000000,31.000000) scale(0.100000,-0.100000)" fill="#000000" stroke="none"> <path d="M45 286 c-54 -54 -51 -154 7 -207 104 -98 274 6 237 144 -11 40 -55 94 -67 82 -4 -3 1 -11 11 -16 45 -26 61 -122 29 -172 -21 -31 -51 -56 -69 -57 -19 0 -16 41 5 56 16 12 16 15 1 42 -9 16 -14 41 -12 56 4 20 0 28 -21 37 -33 16 -60 -4 -53 -39 3 -13 -3 -38 -12 -54 -15 -27 -15 -30 2 -42 17 -13 24 -56 10 -56 -43 2 -93 69 -93 123 0 46 13 75 48 104 15 13 21 23 14 23 -7 0 -24 -11 -37 -24z m128 -60 c9 -22 -19 -42 -37 -26 -19 15 -10 40 14 40 10 0 20 -6 23 -14z m5 -58 c15 -15 16 -48 2 -48 -5 0 -10 -11 -10 -25 0 -18 -5 -25 -20 -25 -15 0 -20 7 -20 25 0 14 -4 25 -10 25 -14 0 -13 33 2 48 7 7 19 12 28 12 9 0 21 -5 28 -12z"/> </g> </svg> 