<?xml version="1.0" encoding="UTF-8"?>
<svg version="1.1" xmlns="http://www.w3.org/2000/svg" width="30" height="29">
<path d="M0 0 C2.43579452 0.92514987 3.93442049 2.22718021 5.8581543 3.97949219 C6.50655273 4.56214844 7.15495117 5.14480469 7.82299805 5.74511719 C8.51522461 6.39996094 9.20745117 7.05480469 9.9206543 7.72949219 C10.82170898 8.47199219 11.72276367 9.21449219 12.65112305 9.97949219 C15.53636438 13.47555053 15.53725388 16.15569268 15.2956543 20.47949219 C15.27438477 21.50623047 15.27438477 21.50623047 15.25268555 22.55371094 C15.10440749 27.545739 15.10440749 27.545739 13.9206543 28.72949219 C11.86010119 28.8294275 9.7961284 28.86030124 7.7331543 28.86230469 C6.47760742 28.86359375 5.22206055 28.86488281 3.9284668 28.86621094 C3.27136719 28.86411621 2.61426758 28.86202148 1.93725586 28.85986328 C-0.07095905 28.85451452 -2.07895029 28.8598091 -4.0871582 28.86621094 C-5.34270508 28.86492188 -6.59825195 28.86363281 -7.8918457 28.86230469 C-9.05329102 28.86117676 -10.21473633 28.86004883 -11.41137695 28.85888672 C-14.0793457 28.72949219 -14.0793457 28.72949219 -15.0793457 27.72949219 C-16.16510228 22.01015471 -17.00642488 15.89640303 -13.86352539 10.73144531 C-4.76515327 -0.61991192 -4.76515327 -0.61991192 0 0 Z M-3.3918457 3.88183594 C-4.2787207 4.8009375 -5.1655957 5.72003906 -6.0793457 6.66699219 C-10.88316042 11.63139954 -10.88316042 11.63139954 -13.0793457 12.72949219 C-13.0793457 17.34949219 -13.0793457 21.96949219 -13.0793457 26.72949219 C-4.4993457 26.72949219 4.0806543 26.72949219 12.9206543 26.72949219 C14.10905267 14.76488696 14.10905267 14.76488696 10.3659668 9.83496094 C9.2914491 8.82678755 8.18352941 7.85307022 7.0456543 6.91699219 C6.49006836 6.40330078 5.93448242 5.88960938 5.36206055 5.36035156 C1.1271938 1.19522514 1.1271938 1.19522514 -3.3918457 3.88183594 Z " fill="#000000" transform="translate(15.079345703125,0.2705078125)"/>
</svg>
