<?xml version="1.0" encoding="UTF-8"?>
<svg version="1.1" xmlns="http://www.w3.org/2000/svg" width="27" height="28">
<path d="M0 0 C7.26 0 14.52 0 22 0 C22.33 2.64 22.66 5.28 23 8 C24.31387169 9.35251497 25.64426252 10.68945377 27 12 C26.9375 14.5625 26.9375 14.5625 26 17 C25.505 17.433125 25.01 17.86625 24.5 18.3125 C22.15396217 20.6309071 22.15396217 20.6309071 22 28 C14.74 28 7.48 28 0 28 C0 18.76 0 9.52 0 0 Z M2 2 C2 9.92 2 17.84 2 26 C7.94 26 13.88 26 20 26 C20.33 23.36 20.66 20.72 21 18 C21.66 17.01 22.32 16.02 23 15 C18.05 15 13.1 15 8 15 C8 14.34 8 13.68 8 13 C12.95 13 17.9 13 23 13 C22.34 12.01 21.68 11.02 21 10 C20.67 7.36 20.34 4.72 20 2 C14.06 2 8.12 2 2 2 Z " fill="#000000" transform="translate(0,0)"/>
</svg>
