<?xml version="1.0" encoding="UTF-8"?>
<svg version="1.1" xmlns="http://www.w3.org/2000/svg" width="30" height="31">
<path d="M0 0 C1.00933594 0.00064453 2.01867187 0.00128906 3.05859375 0.00195312 C10.48442789 0.04692789 10.48442789 0.04692789 11.625 1.1875 C11.71200342 2.82222882 11.73201063 4.46064055 11.72265625 6.09765625 C11.71943359 7.08701172 11.71621094 8.07636719 11.71289062 9.09570312 C11.70451172 10.13662109 11.69613281 11.17753906 11.6875 12.25 C11.68298828 13.29478516 11.67847656 14.33957031 11.67382812 15.41601562 C11.66199913 18.0065666 11.64551689 20.59700559 11.625 23.1875 C10.965 23.1875 10.305 23.1875 9.625 23.1875 C9.625 16.2575 9.625 9.3275 9.625 2.1875 C7.975 2.1875 6.325 2.1875 4.625 2.1875 C4.63285522 3.13387329 4.63285522 3.13387329 4.64086914 4.09936523 C4.66157826 6.94123347 4.67464066 9.78308588 4.6875 12.625 C4.69587891 13.61822266 4.70425781 14.61144531 4.71289062 15.63476562 C4.71772461 17.05112305 4.71772461 17.05112305 4.72265625 18.49609375 C4.73051147 19.80791626 4.73051147 19.80791626 4.73852539 21.14624023 C4.625 23.1875 4.625 23.1875 3.625 24.1875 C0.31983066 24.43785974 -2.99896041 24.37271952 -6.3125 24.375 C-7.24513672 24.38724609 -8.17777344 24.39949219 -9.13867188 24.41210938 C-10.03005859 24.41404297 -10.92144531 24.41597656 -11.83984375 24.41796875 C-12.660896 24.42207764 -13.48194824 24.42618652 -14.32788086 24.43041992 C-16.375 24.1875 -16.375 24.1875 -18.375 22.1875 C-18.60205078 20.12451172 -18.60205078 20.12451172 -18.5703125 17.6171875 C-18.56386719 16.72128906 -18.55742187 15.82539063 -18.55078125 14.90234375 C-18.53402344 13.96519531 -18.51726563 13.02804687 -18.5 12.0625 C-18.49097656 11.11761719 -18.48195313 10.17273437 -18.47265625 9.19921875 C-18.44904522 6.86172708 -18.41611516 4.52473877 -18.375 2.1875 C-12.19789017 -0.00130782 -6.51383924 -0.08089081 0 0 Z M-16.375 3.1875 C-16.46151611 4.60320123 -16.48204904 6.023095 -16.47265625 7.44140625 C-16.46943359 8.29541016 -16.46621094 9.14941406 -16.46289062 10.02929688 C-16.45451172 10.92712891 -16.44613281 11.82496094 -16.4375 12.75 C-16.43298828 13.65169922 -16.42847656 14.55339844 -16.42382812 15.48242188 C-16.41200244 17.71747589 -16.39406638 19.95249602 -16.375 22.1875 C-13.405 22.1875 -10.435 22.1875 -7.375 22.1875 C-7.375 18.8875 -7.375 15.5875 -7.375 12.1875 C-6.715 12.1875 -6.055 12.1875 -5.375 12.1875 C-5.375 15.4875 -5.375 18.7875 -5.375 22.1875 C-1.37245544 22.27931134 -1.37245544 22.27931134 2.625 22.1875 C4.50134259 20.31115741 3.75746191 17.646675 3.76171875 15.15429688 C3.75591797 13.96416992 3.75591797 13.96416992 3.75 12.75 C3.75386719 11.96044922 3.75773437 11.17089844 3.76171875 10.35742188 C3.86632469 6.13879255 3.86632469 6.13879255 2.625 2.1875 C-0.35422593 2.16066013 -3.33321295 2.14073963 -6.3125 2.125 C-7.16263672 2.11662109 -8.01277344 2.10824219 -8.88867188 2.09960938 C-9.69755859 2.09638672 -10.50644531 2.09316406 -11.33984375 2.08984375 C-12.0887085 2.08460693 -12.83757324 2.07937012 -13.60913086 2.07397461 C-15.40167739 1.99408248 -15.40167739 1.99408248 -16.375 3.1875 Z " fill="#000000" transform="translate(18.375,0.8125)"/>
</svg>
