<?xml version="1.0" encoding="UTF-8"?>
<svg version="1.1" xmlns="http://www.w3.org/2000/svg" width="30" height="31">
<path d="M0 0 C0 0.66 0 1.32 0 2 C-1.65532623 3.01866229 -3.32260138 4.01810813 -5 5 C-6.35091528 7.70183055 -6.33858058 10.11808206 -6.5625 13.125 C-6.706875 15.06375 -6.85125 17.0025 -7 19 C-1.72 19 3.56 19 9 19 C8.67 17.68 8.34 16.36 8 15 C8.66 15 9.32 15 10 15 C10.33 16.32 10.66 17.64 11 19 C11.99 19 12.98 19 14 19 C14 19.66 14 20.32 14 21 C5.42 21 -3.16 21 -12 21 C-12 20.34 -12 19.68 -12 19 C-11.01 19 -10.02 19 -9 19 C-9.05220703 17.91332031 -9.05220703 17.91332031 -9.10546875 16.8046875 C-9.26466331 11.11916734 -9.35870303 6.85145993 -6 2 C-3 0 -3 0 0 0 Z " fill="#000000" transform="translate(12,4)"/>
<path d="M0 0 C1.65 0 3.3 0 5 0 C5.33 0.66 5.66 1.32 6 2 C4.02 2 2.04 2 0 2 C0 1.34 0 0.68 0 0 Z " fill="#000000" transform="translate(10,28)"/>
</svg>
