<?xml version="1.0" standalone="no"?>
<!DOCTYPE svg PUBLIC "-//W3C//DTD SVG 20010904//EN"
 "http://www.w3.org/TR/2001/REC-SVG-20010904/DTD/svg10.dtd">
<svg version="1.0" xmlns="http://www.w3.org/2000/svg"
 width="500.000000pt" height="212.000000pt" viewBox="0 0 500.000000 212.000000"
 preserveAspectRatio="xMidYMid meet">

<g transform="translate(0.000000,212.000000) scale(0.100000,-0.100000)"
fill="#000000" stroke="none">
<path d="M1376 2051 c-82 -13 -112 -22 -122 -36 -33 -45 -169 -497 -268 -890
-106 -424 -188 -647 -283 -778 -116 -158 -246 -120 -281 82 -12 67 -34 111
-55 111 -43 0 -219 -162 -232 -213 -11 -40 12 -92 66 -151 71 -78 127 -99 244
-94 113 5 178 33 260 115 135 132 215 309 336 739 157 563 180 639 189 648 7
7 10 -8 10 -40 0 -119 42 -400 115 -776 43 -220 57 -318 69 -472 7 -107 17
-199 21 -206 8 -13 159 -8 235 8 42 9 74 58 145 219 95 217 139 372 251 881
57 260 98 397 139 462 35 56 100 106 153 119 26 7 64 17 84 22 67 17 101 94
78 178 -16 61 -43 81 -109 81 -70 0 -123 -24 -179 -80 -107 -108 -165 -268
-252 -700 -67 -331 -186 -770 -208 -770 -4 0 -13 48 -20 108 -7 59 -28 197
-47 307 -19 110 -47 279 -64 375 -43 256 -61 406 -68 575 -3 83 -10 160 -14
173 -10 27 -36 27 -193 3z"/>
<path d="M3230 1521 c-6 -11 -10 -88 -10 -181 0 -179 4 -196 68 -262 42 -44
52 -47 52 -16 0 12 12 81 27 153 l27 131 -23 45 c-28 53 -85 125 -111 139 -15
8 -21 6 -30 -9z"/>
<path d="M3715 1528 c-2 -7 -10 -56 -19 -108 -8 -52 -22 -127 -31 -165 -16
-70 -17 -71 -68 -99 -77 -43 -164 -108 -175 -131 -10 -22 1 -65 21 -77 22 -14
57 -8 98 18 23 14 43 23 45 21 3 -2 0 -17 -7 -33 -6 -16 -30 -104 -54 -196
-52 -201 -117 -337 -205 -429 -49 -52 -101 -81 -116 -66 -10 10 38 180 102
364 84 239 84 241 22 310 -52 56 -123 92 -144 71 -7 -7 -45 -139 -84 -293 -60
-232 -73 -298 -77 -387 -6 -102 -4 -110 21 -163 32 -65 64 -85 133 -85 85 0
169 64 255 193 26 39 38 35 38 -16 0 -36 45 -121 79 -150 26 -22 42 -27 84
-27 29 0 70 9 92 19 42 19 116 94 141 143 18 35 30 35 38 2 4 -14 30 -49 59
-79 40 -41 65 -57 106 -69 84 -25 148 0 228 88 l51 55 13 -31 c17 -41 65 -95
100 -114 37 -19 123 -18 165 2 54 26 137 123 186 220 61 120 112 250 104 269
-6 16 -64 55 -82 55 -6 0 -23 -33 -39 -72 -48 -125 -94 -207 -143 -258 -89
-92 -98 -68 -56 141 l26 129 -24 39 c-12 22 -40 53 -62 70 -37 29 -37 31 -14
31 38 0 48 18 37 72 -21 114 -77 192 -155 218 -61 20 -171 8 -233 -26 -110
-59 -222 -218 -271 -384 -35 -118 -95 -235 -149 -291 -26 -27 -56 -49 -66 -49
-16 0 -17 7 -12 92 3 54 21 152 41 233 41 163 143 506 154 516 14 14 126 29
214 29 80 0 89 2 102 23 20 31 28 79 20 112 l-7 28 -137 -5 -138 -5 1 63 c2
62 1 64 -43 110 -63 65 -154 105 -165 72z m697 -675 c20 -23 34 -51 42 -85 6
-26 5 -27 -26 -21 l-33 5 -2 -69 c-1 -37 -6 -87 -11 -111 -13 -56 -86 -183
-140 -244 -36 -39 -50 -48 -78 -48 -79 0 -93 131 -32 320 40 124 96 211 163
252 38 23 97 24 117 1z"/>
<path d="M2065 1008 c-2 -7 -23 -134 -46 -283 -30 -189 -43 -302 -44 -376 0
-98 2 -110 30 -165 24 -47 39 -64 75 -82 75 -39 163 -12 238 73 42 48 52 54
52 30 0 -31 41 -95 70 -110 125 -64 283 55 455 346 93 157 205 384 205 416 0
44 -75 153 -105 153 -6 0 -16 -25 -22 -55 -24 -112 -148 -368 -266 -545 -48
-73 -114 -150 -128 -150 -4 0 4 39 17 87 32 114 124 492 124 508 0 6 -14 32
-31 58 -38 58 -113 109 -154 105 -35 -4 -35 -3 -65 -181 -38 -222 -159 -487
-253 -554 -27 -20 -32 -21 -40 -7 -14 25 11 185 59 373 24 96 44 187 44 201 0
38 -52 105 -107 140 -49 31 -101 39 -108 18z"/>
</g>
</svg>
