<?xml version="1.0" encoding="UTF-8"?>
<svg version="1.1" xmlns="http://www.w3.org/2000/svg" width="30" height="31">
<path d="M0 0 C0.99 0.33 1.98 0.66 3 1 C2.195625 1.763125 1.39125 2.52625 0.5625 3.3125 C-2.44050329 6.46199125 -2.90840139 8.02905475 -3.3125 12.3125 C-2.93790854 16.73267921 -1.83614013 18.62729281 1 22 C3.60024049 23.86310322 3.60024049 23.86310322 6 25 C5.67 23.35 5.34 21.7 5 20 C4.34 20 3.68 20 3 20 C2.79913557 16.28400809 2.8480563 15.22791555 5 12 C5 11.154375 5 10.30875 5 9.4375 C5 7 5 7 7 5 C11.55555556 5.55555556 11.55555556 5.55555556 13 7 C12.979375 7.969375 12.95875 8.93875 12.9375 9.9375 C12.64862426 13.11031214 12.64862426 13.11031214 15 15 C15.125 17.625 15.125 17.625 15 20 C14.34 20.33 13.68 20.66 13 21 C12.34786708 23.02463255 12.34786708 23.02463255 12 25 C16.18111999 22.491328 19.08827914 20.56688872 21 16 C21.73000291 10.26426283 20.48921669 7.51545689 17 3 C16.34 2.01 15.68 1.02 15 0 C18.12981912 0.33533776 19.00061159 1.00066401 21.1875 3.375 C24.1220476 7.62503446 24.34476102 10.91477503 24 16 C22.01155883 21.33739473 19.09332352 24.45333824 14 27 C8.9888842 27.54978069 5.10303507 27.56154513 0.5625 25.25 C-3.77418337 21.44218045 -5.80690649 18.55848895 -6.25 12.6875 C-5.92487142 7.89185347 -4.52597883 4.69553203 -1.3125 1.125 C-0.879375 0.75375 -0.44625 0.3825 0 0 Z M8 7 C7.67 8.32 7.34 9.64 7 11 C8.32 11 9.64 11 11 11 C10.67 9.68 10.34 8.36 10 7 C9.34 7 8.68 7 8 7 Z M6 14 C5.67 15.65 5.34 17.3 5 19 C5.66 19 6.32 19 7 19 C7.33 20.65 7.66 22.3 8 24 C8.66 24 9.32 24 10 24 C10.33 22.35 10.66 20.7 11 19 C11.66 19 12.32 19 13 19 C12.67 17.35 12.34 15.7 12 14 C9 12.66666667 9 12.66666667 6 14 Z " fill="#000000" transform="translate(6,0)"/>
</svg>
